<?xml version="1.0" standalone="no"?>
<!DOCTYPE svg PUBLIC "-//W3C//DTD SVG 20010904//EN"
 "http://www.w3.org/TR/2001/REC-SVG-20010904/DTD/svg10.dtd">
<svg version="1.0" xmlns="http://www.w3.org/2000/svg"
 width="1200.000000pt" height="1200.000000pt" viewBox="0 0 1200.000000 1200.000000"
 preserveAspectRatio="xMidYMid meet">

<g transform="translate(0.000000,1200.000000) scale(0.100000,-0.100000)"
fill="#000000" stroke="none">
<path d="M3419 7442 c-131 -44 -204 -103 -257 -209 -73 -145 -90 -267 -97
-673 -3 -168 -7 -397 -10 -508 l-4 -204 24 -24 c23 -23 30 -24 155 -24 128 0
131 0 140 24 5 13 12 132 16 265 l7 241 211 0 c116 0 221 -3 234 -6 l22 -6 0
-239 c0 -301 -14 -279 175 -279 130 0 135 1 150 23 13 20 16 98 19 528 6 711
-8 806 -133 957 -103 124 -156 143 -411 148 -159 3 -193 1 -241 -14z m302
-307 c48 -17 84 -47 105 -86 22 -44 42 -158 48 -276 l5 -113 -245 0 -244 0 0
63 c0 79 17 239 31 289 12 46 62 106 104 124 41 18 143 17 196 -1z"/>
<path d="M1898 7443 c-46 -3 -60 -8 -69 -24 -16 -30 -8 -261 10 -282 11 -15
37 -17 176 -17 l163 0 4 -28 c2 -15 1 -239 -3 -497 -8 -549 -5 -745 11 -774
10 -20 19 -21 144 -21 118 0 135 2 150 19 19 21 22 146 25 919 l1 383 157 -2
c203 -1 195 -9 191 175 -3 128 -3 131 -28 143 -19 10 -125 12 -450 11 -234 -1
-451 -3 -482 -5z"/>
<path d="M4508 7435 c-16 -9 -28 -17 -28 -18 0 -1 -3 -360 -7 -798 l-6 -795
29 -11 c16 -6 80 -14 142 -17 165 -8 152 -36 152 339 l0 305 225 0 225 0 0
-305 0 -305 23 -14 c14 -9 66 -16 143 -20 114 -5 122 -4 140 15 18 20 19 55
24 790 3 423 2 782 -3 798 -4 16 -15 32 -24 35 -9 4 -67 10 -128 13 -106 6
-112 5 -138 -18 l-28 -24 1 -277 c0 -152 -2 -295 -6 -317 l-7 -41 -218 0 -219
0 0 318 c0 298 -1 320 -19 336 -27 25 -235 33 -273 11z"/>
<path d="M5891 7433 c-21 -18 -21 -25 -26 -443 -9 -931 -9 -1160 4 -1173 8 -8
59 -13 146 -15 131 -3 134 -3 146 20 10 17 14 135 17 466 3 243 8 442 11 442
4 0 19 -24 34 -52 16 -29 42 -76 60 -105 18 -28 44 -73 59 -100 16 -26 46 -77
68 -113 21 -36 51 -87 65 -113 29 -54 60 -71 113 -61 48 9 68 34 126 150 27
55 55 106 62 114 13 15 61 98 132 230 20 35 37 60 38 55 2 -6 4 -211 6 -456 2
-360 6 -449 17 -462 21 -26 260 -25 287 1 18 16 19 46 14 805 l-5 789 -25 20
c-22 18 -36 20 -125 16 -55 -3 -109 -9 -120 -15 -12 -6 -49 -62 -85 -125 -35
-62 -83 -140 -106 -173 -23 -33 -53 -83 -66 -110 -13 -28 -42 -81 -65 -120
-22 -38 -57 -103 -78 -144 l-37 -74 -20 34 c-11 18 -35 63 -53 99 -18 36 -45
90 -61 120 -16 30 -44 87 -62 125 -18 39 -72 135 -120 215 -102 167 -103 169
-243 169 -69 1 -91 -3 -108 -16z"/>
<path d="M7596 7427 l-26 -26 -2 -338 c-7 -849 -3 -1234 10 -1246 7 -6 70 -14
140 -19 174 -12 163 -28 168 238 10 482 11 1340 2 1365 -12 36 -22 39 -154 46
-111 6 -112 6 -138 -20z"/>
<path d="M8220 7437 l-25 -13 -6 -344 c-3 -190 -7 -550 -8 -801 l-1 -456 25
-11 c15 -7 76 -12 145 -12 111 0 120 1 131 21 10 20 28 602 25 822 0 48 2 87
5 87 3 0 11 -12 18 -27 7 -16 36 -66 65 -113 54 -86 127 -209 155 -261 79
-141 99 -158 169 -140 49 14 47 12 118 146 32 61 68 124 80 140 12 17 31 48
42 70 37 76 105 195 111 195 3 0 6 -205 7 -455 1 -354 4 -457 14 -470 10 -12
37 -15 142 -15 71 0 138 5 149 10 18 10 19 24 19 313 0 166 -3 522 -7 792 l-6
489 -24 24 c-24 23 -29 24 -126 20 -56 -3 -111 -10 -122 -16 -11 -6 -42 -50
-69 -99 -27 -48 -74 -126 -104 -173 -30 -47 -69 -112 -87 -145 -104 -198 -149
-283 -162 -303 l-15 -24 -19 34 c-10 18 -37 69 -59 113 -21 44 -48 96 -59 115
-11 19 -38 73 -61 120 -22 47 -55 110 -74 140 -122 202 -131 215 -166 227 -47
16 -188 16 -220 0z"/>
<path d="M9940 6089 c-116 -47 -136 -219 -31 -274 43 -22 138 -20 178 5 47 28
76 91 68 143 -15 91 -131 159 -215 126z"/>
<path d="M1942 4903 l3 -386 4063 -4 4062 -4 0 390 0 391 -4065 0 -4065 0 2
-387z m8096 -5 l-3 -361 -2010 1 c-1105 0 -2922 1 -4037 1 l-2028 1 0 360 0
360 4040 0 4040 0 -2 -362z"/>
<path d="M2888 5141 c-60 -12 -130 -62 -156 -109 -30 -54 -39 -145 -22 -208
51 -181 348 -222 456 -62 80 118 41 295 -78 356 -50 26 -138 36 -200 23z m154
-140 c72 -80 31 -215 -69 -227 -45 -6 -97 18 -126 57 -24 34 -25 108 -1 148
39 66 146 78 196 22z"/>
<path d="M5817 5136 c-105 -28 -167 -113 -167 -227 0 -84 14 -125 58 -171 39
-41 130 -78 194 -78 98 0 188 52 229 132 28 56 29 170 1 225 -56 110 -178 156
-315 119z m143 -111 c37 -19 63 -68 63 -120 0 -74 -52 -135 -114 -135 -36 0
-105 38 -120 67 -21 40 -18 116 7 150 35 48 111 65 164 38z"/>
<path d="M2104 5126 c-3 -8 -4 -31 -2 -52 3 -34 6 -39 31 -42 l28 -3 -3 -127
c-3 -123 -4 -127 -25 -130 -20 -3 -23 -9 -23 -53 l0 -49 202 2 203 3 0 83 c0
46 -3 88 -6 94 -3 5 -28 8 -55 6 -47 -3 -49 -4 -52 -35 -4 -37 -24 -47 -83
-41 l-34 3 -3 122 -3 122 28 3 c26 3 28 6 31 56 l3 52 -116 0 c-90 0 -117 -3
-121 -14z"/>
<path d="M3382 5088 c3 -48 5 -53 27 -53 21 0 31 -17 88 -150 35 -82 70 -165
78 -183 15 -33 16 -33 77 -30 l62 3 63 145 c89 204 95 215 121 218 19 3 22 9
22 53 l0 49 -116 0 -115 0 3 -52 c2 -44 6 -52 21 -50 22 4 21 -5 -2 -59 -10
-24 -26 -65 -35 -91 -20 -54 -33 -60 -42 -20 -4 15 -20 58 -35 95 -28 66 -28
69 -9 74 24 6 34 34 25 73 l-7 30 -114 0 -115 0 3 -52z"/>
<path d="M4110 5091 c0 -44 3 -50 23 -53 21 -3 22 -7 25 -130 l3 -128 -26 0
c-25 0 -26 -2 -23 -52 l3 -53 200 0 200 0 3 78 3 78 -48 -3 c-41 -3 -48 -6
-51 -25 -3 -21 -9 -23 -68 -23 l-64 0 0 35 0 35 56 0 55 0 -3 48 -3 47 -52 3
-53 3 0 40 0 39 65 0 c61 0 65 -1 62 -22 -2 -21 3 -23 46 -26 l47 -3 0 80 0
81 -200 0 -200 0 0 -49z"/>
<path d="M5026 5123 c-4 -9 -4 -49 0 -90 l7 -73 48 0 c46 0 49 1 57 32 4 18
16 34 25 36 15 3 17 -10 17 -127 l0 -130 -25 -3 c-14 -2 -25 -6 -25 -10 0 -5
0 -26 0 -48 l0 -40 115 0 115 0 0 50 c0 47 -2 50 -25 50 l-25 0 0 125 c0 106
3 127 16 132 19 7 34 -13 34 -44 0 -21 5 -23 50 -23 33 0 50 4 51 13 1 11 1
82 0 140 l-1 27 -214 0 c-190 0 -215 -2 -220 -17z"/>
<path d="M6724 5126 c-3 -8 -4 -31 -2 -52 3 -34 6 -39 31 -42 l28 -3 -3 -127
c-3 -123 -4 -127 -25 -130 -20 -3 -23 -9 -23 -53 l0 -49 202 2 203 3 0 83 c0
46 -3 88 -6 94 -3 5 -28 8 -55 6 -47 -3 -49 -4 -52 -35 -4 -37 -24 -47 -83
-41 l-34 3 -3 122 -3 122 28 3 c26 3 28 6 31 56 l3 52 -116 0 c-90 0 -117 -3
-121 -14z"/>
<path d="M7330 5091 c0 -44 3 -50 23 -53 21 -3 22 -7 25 -130 l3 -128 -26 0
c-24 0 -25 -3 -25 -55 l0 -55 203 2 202 3 3 78 3 78 -48 -3 c-41 -3 -48 -6
-51 -25 -3 -21 -9 -23 -67 -23 -60 0 -63 1 -69 26 -9 35 0 42 59 46 l50 3 0
45 0 45 -52 3 c-47 3 -54 6 -59 27 -11 45 0 55 65 55 54 0 60 -2 63 -22 3 -20
10 -23 51 -26 l47 -3 0 80 0 81 -200 0 -200 0 0 -49z"/>
<path d="M8034 5126 c-3 -8 -4 -31 -2 -52 2 -32 7 -40 26 -42 28 -4 27 -8 -39
-152 -41 -90 -52 -105 -74 -108 -23 -3 -25 -7 -25 -53 l0 -50 113 3 112 3 3
34 c3 27 -2 39 -19 52 -14 10 -20 22 -16 33 6 14 20 16 89 14 77 -3 83 -5 86
-25 2 -16 -2 -23 -12 -23 -12 0 -16 -11 -16 -45 l0 -45 110 0 110 0 0 50 c0
46 -2 50 -24 50 -26 0 -36 16 -79 130 -14 36 -44 104 -67 153 l-41 87 -115 0
c-89 0 -116 -3 -120 -14z m191 -162 c21 -51 20 -54 -25 -54 -22 0 -40 4 -40 9
0 19 31 81 40 81 5 0 17 -16 25 -36z"/>
<path d="M8667 5134 c-4 -4 -7 -27 -7 -51 0 -41 1 -43 30 -43 l30 0 0 -129 0
-130 -27 -3 c-26 -3 -28 -7 -31 -56 l-3 -53 118 3 118 3 0 45 c0 39 -3 45 -22
48 -34 5 -32 52 1 52 37 0 86 -64 86 -112 l0 -38 90 0 90 0 0 54 0 55 -36 3
c-26 2 -40 10 -52 31 -17 28 -17 29 12 49 57 43 74 139 34 198 -49 71 -61 75
-251 78 -95 2 -175 0 -180 -4z m307 -110 c9 -8 16 -31 16 -49 0 -42 -20 -55
-89 -55 l-51 0 0 60 0 60 54 0 c36 0 60 -5 70 -16z"/>
<path d="M9330 5090 c0 -46 2 -50 24 -50 25 0 25 0 28 -120 2 -66 2 -125 0
-130 -2 -6 -15 -10 -28 -10 -22 0 -24 -3 -24 -55 l0 -56 113 3 112 3 3 53 c3
50 2 52 -22 52 -25 0 -26 2 -26 65 0 36 3 65 8 65 4 0 47 -54 96 -121 l89
-120 51 3 51 3 3 178 2 177 24 0 c26 0 34 16 32 70 l-1 35 -110 0 -110 0 -3
-52 c-3 -47 -1 -53 16 -53 16 0 20 -10 25 -62 3 -35 4 -65 2 -67 -7 -6 -36 21
-59 55 -11 18 -47 66 -79 108 l-58 76 -80 0 -79 0 0 -50z"/>
</g>
</svg>
